# xmcd
#
# Track frame offsets:
#  182
#  19005
#  31602
#  47332
#  64785
#  91175
#  102760
#  116230
#  135685
#  172265
#
# Disc length: 2741 seconds
#
# Revision: 0
# Processed by: cddbd v1.5.2PL0 Copyright (c) Steve Scherf et al.
# Submitted via: Collectorz.com_Music_Collector 6.11
#
DISCID=7a0ab30a
DTITLE=Various Artist - Metal CD Collection 9
DYEAR=1900
DGENRE=Metal
TTITLE0=Wolfsbane - Rope and Ride (Live)
TTITLE1=Masters of Reality - She Got Me
TTITLE2=Manic Street Preachers - Symphony Of Tourette
TTITLE3=cry Of Love - Too Cold In The Winter
TTITLE4=Nudeswirl - Gordon's Corner
TTITLE5=Lunachicks - Apathetic
TTITLE6=Tribe After Tribe - Nikita
TTITLE7=Forgodsake - Blasthead
TTITLE8=Coroner - Paralized, Mesmerized
TTITLE9=Treponem Pal - Pushing You Too Far (Advance)
EXTD=
EXTT0=
EXTT1=
EXTT2=
EXTT3=
EXTT4=
EXTT5=
EXTT6=
EXTT7=
EXTT8=
EXTT9=
PLAYORDER=
